<svg t="1761881842899" class="icon" viewBox="0 0 1024 1024" version="1.1" xmlns="http://www.w3.org/2000/svg" p-id="10805" width="20" height="20"><path d="M267.6992 387.65568l30.2592 78.9504c5.0688 14.5408 14.0288 14.5408 19.6096 0l30.2592-78.9504c5.0176-14.0288 21.248-30.2592 35.84-35.84l78.9504-30.2592c14.5408-5.0688 14.5408-14.0288 0-19.6096l-78.9504-30.2592c-14.0288-5.0176-30.2592-21.248-35.84-35.84l-30.2592-78.9504c-5.0688-14.5408-14.0288-14.5408-19.6096 0l-30.2592 78.9504c-5.0176 14.0288-21.248 30.2592-35.84 35.84l-78.9504 30.2592c-14.5408 5.0688-14.5408 14.0288 0 19.6096l78.9504 30.2592c14.0288 5.0176 30.2592 21.248 35.84 35.84z" fill="#2DD8FF" p-id="10806"></path><path d="M847.3088 557.30688l-99.1232-24.6272c-44.8-11.2128-90.7264-57.1392-101.888-101.9392l-24.6784-99.1232c-11.1616-44.8-29.6448-44.8-40.8576 0l-24.6272 99.1232c-11.2128 44.8-57.1392 90.7264-101.9392 101.9392l-99.1232 24.6272c-44.8 11.2128-44.8 29.696 0 40.8576l99.1232 24.6784c44.8 11.1616 90.7264 57.088 101.9392 101.888l24.6272 99.1232c11.2128 44.8 29.696 44.8 40.8576 0l24.6784-99.1232c11.1616-44.8 57.088-90.7264 101.888-101.888l99.1232-24.6784c44.8-11.1616 44.8-29.6448 0-40.8576z" fill="#1653FF" p-id="10807"></path></svg>