<svg t="1763022804539" class="icon" viewBox="0 0 1024 1024" version="1.1" xmlns="http://www.w3.org/2000/svg" p-id="6796" id="mx_n_1763022804540" width="200" height="200"><path d="M660.207995 772.46929l53.079916 0c132.716674-44.236504 209.386868-148.936077 230.03821-314.087465 2.946099-88.475054-10.326183-154.832368-39.818891-199.064778C826.83192 132.50178 702.962751 67.624167 531.918143 64.676022c-61.929468-2.949168-136.054699 2.50403-212.338083 39.808658C163.72234 180.712805 92.492042 318.29837 80.700485 471.656153c-5.897314 85.527932 7.369851 166.625972 39.814798 243.308445 73.727165 153.35062 191.69288 234.449683 353.896122 243.301282 144.507208 5.897314 272.792966-39.813774 384.861368-137.13531l-48.65821-53.090149c-132.712581 109.126396-277.225929 140.090619-433.524694 92.904946-135.662773-58.988486-209.388914-171.054841-221.188658-336.207251 2.948145-73.727165 20.644179-141.5519 53.089126-203.485461 64.875566-117.965715 169.31215-191.81363 314.079278-190.225459 213.05542 2.344395 328.829214 106.172111 349.474416 265.426185 2.951215 147.455353-50.134841 246.25659-159.249981 296.391431l-26.543539 0c-20.644179-14.748912-28.016077-35.388998-22.118763-61.933561l110.585631-367.171474-88.466867 0-13.276375 48.660256-26.542516-35.386952c-73.725118-50.134841-150.401452-51.609425-230.031047-4.422729-70.780043 53.082986-116.491131 120.17401-137.136334 201.27205-20.638039 81.103156-19.169595 147.461493 4.422729 199.069895 23.592324 51.608402 64.886823 81.838913 123.868145 90.684372 67.831898 5.897314 128.284735-19.165502 181.367721-75.201749l0 4.428869C589.422835 731.179908 613.022323 757.721401 660.207995 772.46929L660.207995 772.46929zM461.1381 683.993213l-57.511855-4.427846c-44.233434-14.741749-63.403029-53.076846-57.505715-115.012454 23.592324-147.45433 87.001493-231.507678 190.219319-252.15288 61.933561 2.954285 97.320513 26.541493 106.169041 70.77902C633.666502 536.538883 573.212642 636.80754 461.1381 683.993213L461.1381 683.993213zM461.1381 683.993213" fill="#000000" p-id="6797"></path></svg>