<svg t="1762682252417" class="icon" viewBox="0 0 1024 1024" version="1.1" xmlns="http://www.w3.org/2000/svg" p-id="2789" width="200" height="200"><path d="M512 1024c-161.28 0-287.744-224.768-287.744-512S350.72 0 512 0s288.256 224.768 288.256 512c-0.512 287.232-126.976 512-288.256 512z m0-960c-121.344 0-223.744 205.312-223.744 448s102.4 448 223.744 448c121.344 0 224.256-205.312 224.256-448S633.344 64 512 64z" fill="#333333" p-id="2790"></path><path d="M512 1024c-152.576 0-295.936-67.072-393.728-184.832l-23.04-27.648 30.72-19.456c96.768-61.952 237.568-97.28 386.048-97.28 148.992 0 289.792 35.328 386.048 97.28l30.72 19.456-23.04 27.648c-97.792 117.76-241.152 184.832-393.728 184.832z m-318.464-197.12c83.968 84.992 198.144 133.12 318.464 133.12s234.496-48.128 318.464-133.12c-84.48-43.52-198.144-68.096-318.464-68.096s-233.984 24.576-318.464 68.096zM512 345.6c-154.624 0-298.496-37.888-395.264-103.424l-28.672-19.456 20.992-27.136C207.36 71.168 353.792 0 512 0c158.208 0 304.64 71.168 402.432 195.584l20.992 27.136-28.672 19.456c-96.256 65.536-240.128 103.424-394.752 103.424zM183.296 207.872C268.288 254.976 386.048 281.6 512 281.6s243.712-26.624 328.704-73.728c-84.48-91.648-202.752-143.872-328.704-143.872S267.776 116.224 183.296 207.872z" fill="#333333" p-id="2791"></path><path d="M136.192 861.184l-17.92-21.504C41.984 747.52 0 631.296 0 512c0-115.712 37.888-225.28 109.568-316.416l18.432-23.552 24.576 16.896C239.104 247.808 370.176 281.6 512 281.6s272.896-33.792 359.424-92.16l24.576-16.896 18.432 23.552C986.112 286.72 1024 396.288 1024 512c0 119.296-41.984 235.52-118.272 327.168l-17.92 21.504-23.552-15.36c-86.528-55.296-214.528-87.04-351.744-87.04-137.216 0-265.216 31.744-351.744 87.04l-24.576 15.872z m375.808-166.4c136.704 0 266.24 29.696 360.96 82.432 56.32-76.288 87.04-169.472 87.04-265.216 0-91.648-27.136-178.688-78.848-253.44-95.744 55.808-228.352 87.04-369.152 87.04s-273.408-31.232-369.152-87.04C91.136 333.312 64 420.352 64 512c0 95.232 30.72 188.416 87.04 265.216 94.72-52.736 224.256-82.432 360.96-82.432z" fill="#333333" p-id="2792"></path><path d="M479.744 31.744h64v960H479.744z" fill="#333333" p-id="2793"></path><path d="M32.256 479.744h960v64H32.256z" fill="#333333" p-id="2794"></path></svg>